<?xml version="1.0" encoding="utf-8"?>
<svg width="355px" height="307px" viewBox="0 0 355 307" version="1.1" xmlns:xlink="http://www.w3.org/1999/xlink" xmlns="http://www.w3.org/2000/svg">
  <defs>
    <filter id="filter_1">
      <feColorMatrix in="SourceGraphic" type="matrix" values="0 0 0 0 0.2 0 0 0 0 0.2 0 0 0 0 0.2 0 0 0 1 0" color-interpolation-filters="sRGB" />
    </filter>
    <path d="M0 0L355 0L355 211L0 211L0 0Z" id="path_1" />
    <clipPath id="clip_1">
      <use xlink:href="#path_1" clip-rule="evenodd" fill-rule="evenodd" transform="translate(0, -121.87891)" />
    </clipPath>
  </defs>
  <g id="Group">
    <g id="Group" transform="translate(17 84)" filter="url(#filter_1)">
      <path d="M313 0C317.419 0 321 3.58112 321 8L321 122C321 126.419 317.419 130 313 130L8 130C3.58112 130 0 126.419 0 122L0 8C0 3.58112 3.58112 0 8 0L313 0Z" id="Rectangle" fill="#D1C4E9" stroke="none" />
      <path d="M218 108C225.733 108 232 114.267 232 122L232 209C232 216.733 225.733 223 218 223L102 223C94.267 223 88 216.733 88 209L88 122C88 114.267 94.267 108 102 108L218 108Z" id="Rectangle-2" fill="#D1C4E9" stroke="none" />
    </g>
    <g id="TETRIS" clip-path="url(#clip_1)" transform="translate(0 121.87891)">
      <g transform="translate(56.140625, 0)" id="T-E-T-R-I-S" fill="#AE1212">
        <path d="M44.3672 3.41016L43.3477 25.5234Q41.9766 25.3125 38.9531 24.9961Q37.0898 24.8906 32.9063 24.7852Q32.6953 26.8594 32.168 34.8047Q31.7812 42.5039 30.9023 57.4102L13.8867 57.4102Q13.6055 50.3086 12.832 35.0859Q12.4805 29.8125 12.0938 24.7852L6.53906 24.9961L1.51172 25.5234L0.632813 3.41016L44.3672 3.41016Z" />
      </g>
      <g transform="translate(101.140625, 0)" id="T-E-T-R-I-S" fill="#E34100">
        <path d="M38.3906 3.41016L36.8789 25.6641Q35.5781 25.4531 31.2539 24.9258Q28.3008 24.6445 24.7852 24.5742L24.2578 31.2891Q28.125 31.3945 36.8789 31.1133Q36.4922 32.4141 35.6484 35.9648Q35.1562 38.1094 34.7695 40.9219Q33.75 40.6758 29.6719 40.2891Q27.7734 40.1836 24.0469 40.2188L23.6953 48.0586Q26.332 48.0234 33.3984 47.6016Q34.7344 47.4961 37.793 46.7578Q37.5117 47.8477 36.4922 51.9961Q36 54.1406 35.2969 57.4102L3.83203 57.4102L2.8125 29.8477Q2.53125 20.3906 1.44141 3.41016L38.3906 3.41016Z" />
      </g>
      <g transform="translate(141.11328, 0)" id="T-E-T-R-I-S" fill="#E79200">
        <path d="M44.3672 3.41016L43.3477 25.5234Q41.9766 25.3125 38.9531 24.9961Q37.0898 24.8906 32.9063 24.7852Q32.6953 26.8594 32.168 34.8047Q31.7812 42.5039 30.9023 57.4102L13.8867 57.4102Q13.6055 50.3086 12.832 35.0859Q12.4805 29.8125 12.0938 24.7852L6.53906 24.9961L1.51172 25.5234L0.632813 3.41016L44.3672 3.41016Z" />
      </g>
      <g transform="translate(186.11328, 0)" id="T-E-T-R-I-S" fill="#5A8900">
        <path d="M48.6563 23.625Q48.6563 30.0938 45.0352 35.0859Q41.8359 39.4453 37.0195 41.3438Q38.0391 42.9258 42.0469 47.9883Q44.0508 50.3086 48.1641 54.1055Q46.5117 54.7031 40.8867 57.1289Q36.9492 58.9219 33.4688 60.6445Q32.4492 59.3789 28.9336 54.1055Q27.3164 51.4336 24.1875 45.1055L24.1172 45.1055L23.7656 57.4102L3.97266 57.4102Q3.58594 49.7461 2.88281 32.1328Q2.56641 21.7617 1.44141 3.41016Q11.1094 2.39063 19.0898 2.39063Q48.6563 2.39063 48.6563 23.625ZM32.6953 31.2188Q32.6953 27.8789 29.8828 26.4375Q27.8086 25.3828 24.6797 25.5234L24.4688 37.5469Q27.3867 37.5469 29.6719 36.2461Q32.6953 34.5586 32.6953 31.2188Z" />
      </g>
      <g transform="translate(235.36719, 0)" id="T-E-T-R-I-S" fill="#0099D9">
        <path d="M25.8398 3.41016L24.4688 32.1328Q24.082 41.4141 23.5547 57.4102L3.83203 57.4102L1.44141 3.41016L25.8398 3.41016Z" />
      </g>
      <g transform="translate(262.64844, 0)" id="T-E-T-R-I-S" fill="#8734BB">
        <path d="M34.9102 25.5234Q32.3086 24.9258 30.9727 24.9258Q29.3203 24.9258 27.9492 26.0508Q26.2969 27.4219 26.2969 29.6016Q26.2969 31.2891 29.3203 36.1055Q32.3438 40.9219 32.3438 44.9648Q32.3438 50.8359 27.8789 54.5977Q23.625 58.2188 17.3672 58.2188Q11.6016 58.2188 8.85938 57.4102Q8.54297 55.793 7.76953 52.1367Q7.27734 50.168 6.39844 46.8984Q10.2656 47.8477 11.6016 47.8477Q16.8398 47.8477 16.8398 43.875Q16.8398 40.9922 14.7305 38.707Q11.2852 35.6836 7.83984 32.625Q1.16016 26.7188 1.16016 18.5977Q1.16016 10.125 7.48828 5.76563Q13.0078 1.96875 22.1836 1.96875Q27.3867 1.96875 33.8555 3.48047L34.9102 25.5234Z" />
      </g>
    </g>
  </g>
</svg>